<?xml version="1.0" encoding="iso-8859-1"?>
<!-- Generator: Adobe Illustrator 19.0.0, SVG Export Plug-In . SVG Version: 6.00 Build 0)  -->
<svg version="1.1" id="Capa_1" xmlns="http://www.w3.org/2000/svg" xmlns:xlink="http://www.w3.org/1999/xlink" x="0px" y="0px"
	 viewBox="0 0 54.712 54.712" style="enable-background:new 0 0 54.712 54.712;" xml:space="preserve">
<g>
	<g>
		<path d="M50.287,26.051C47.9,15.399,38.325,7.712,27.356,7.712c-0.348,0-0.69,0.03-1.035,0.045
			c0.371-0.678,1.563-2.29,4.916-3.384c0.525-0.171,0.812-0.735,0.641-1.261c-0.171-0.524-0.734-0.812-1.261-0.64
			c-2.588,0.844-4.147,2.02-5.076,3.021c-0.958-2.077-3.098-4.535-7.916-5.476c-0.542-0.106-1.067,0.248-1.173,0.79
			c-0.106,0.542,0.248,1.067,0.79,1.173c5.429,1.06,6.697,4.232,6.99,5.81c0.001,0.051,0.003,0.1,0.011,0.15
			c-9.624,1.296-17.661,8.48-19.819,18.109c-2.212,1.475-3.569,3.987-3.569,6.661c0,3.13,1.871,6.004,4.699,7.289
			c3.56,8.817,12.266,14.711,21.801,14.711s18.241-5.894,21.801-14.711c2.829-1.285,4.699-4.159,4.699-7.289
			C53.856,30.038,52.5,27.526,50.287,26.051z M48.02,38.311c-0.264,0.102-0.472,0.312-0.573,0.575
			c-3.161,8.27-11.235,13.826-20.09,13.826s-16.929-5.557-20.09-13.826c-0.101-0.264-0.31-0.474-0.573-0.575
			c-2.295-0.888-3.837-3.138-3.837-5.599c0-2.119,1.136-4.103,2.964-5.177c0.245-0.144,0.417-0.384,0.473-0.662
			C8.331,16.93,17.189,9.712,27.356,9.712s19.025,7.218,21.062,17.161c0.057,0.278,0.229,0.519,0.473,0.662
			c1.829,1.074,2.964,3.058,2.964,5.177C51.856,35.173,50.315,37.423,48.02,38.311z"/>
		<path d="M26.856,34.712c-2.693,0-9,0-9,6.174c0,5.111,4.122,9.429,9,9.429s9-4.317,9-9.429
			C35.856,34.712,29.549,34.712,26.856,34.712z M26.856,48.315c-3.729,0-7-3.472-7-7.429c0-3.043,1.897-4.174,7-4.174
			s7,1.131,7,4.174C33.856,44.843,30.585,48.315,26.856,48.315z"/>
		<path d="M26.856,38.712c-2.206,0-4,1.794-4,4s1.794,4,4,4s4-1.794,4-4S29.062,38.712,26.856,38.712z M26.856,44.712
			c-1.103,0-2-0.897-2-2s0.897-2,2-2s2,0.897,2,2S27.959,44.712,26.856,44.712z"/>
		<path d="M34.856,23.712c-2.757,0-5,2.243-5,5c0,0.553,0.448,1,1,1s1-0.447,1-1c0-1.654,1.346-3,3-3s3,1.346,3,3
			c0,0.553,0.448,1,1,1s1-0.447,1-1C39.856,25.955,37.613,23.712,34.856,23.712z"/>
		<path d="M22.856,28.712c0,0.553,0.448,1,1,1s1-0.447,1-1c0-2.757-2.243-5-5-5s-5,2.243-5,5c0,0.553,0.448,1,1,1s1-0.447,1-1
			c0-1.654,1.346-3,3-3S22.856,27.058,22.856,28.712z"/>
	</g>
</g>
<g>
</g>
<g>
</g>
<g>
</g>
<g>
</g>
<g>
</g>
<g>
</g>
<g>
</g>
<g>
</g>
<g>
</g>
<g>
</g>
<g>
</g>
<g>
</g>
<g>
</g>
<g>
</g>
<g>
</g>
</svg>
